<svg width="51" height="50" viewBox="0 0 51 50" fill="none" xmlns="http://www.w3.org/2000/svg">
<path d="M40.7717 5.09111H31.9545V3.26582C31.9545 1.46211 30.4786 0 28.6581 0H22.7251C20.9045 0 19.4287 1.46211 19.4287 3.26582V5.09111H10.6115C9.70136 5.09111 8.96338 5.82227 8.96338 6.72402V48.3671C8.96338 49.2688 9.70136 50 10.6115 50H40.7717C41.6819 50 42.4198 49.2688 42.4198 48.3671V6.72402C42.4198 5.82217 41.6819 5.09111 40.7717 5.09111ZM31.9545 9.73721H33.3826C34.2928 9.73721 35.0308 10.4684 35.0308 11.3701C35.0308 12.2719 34.2928 13.003 33.3826 13.003H31.9545V9.73721ZM22.725 3.26582H28.658V13.1236H22.725V3.26582ZM25.6916 17.5621C29.0014 17.5621 31.6845 20.2204 31.6845 23.4995C31.6845 26.7786 29.0014 29.4369 25.6916 29.4369C22.3819 29.4369 19.6987 26.7786 19.6987 23.4995C19.6987 20.2204 22.3819 17.5621 25.6916 17.5621ZM18.0005 9.73721H19.4286V13.003H18.0005C17.0903 13.003 16.3523 12.2719 16.3523 11.3701C16.3523 10.4683 17.0902 9.73721 18.0005 9.73721ZM37.1192 44.6432H14.264C13.8089 44.6432 13.44 44.2776 13.44 43.8268C13.44 40.5846 14.7144 37.5363 17.0284 35.2437C19.3424 32.9512 22.4191 31.6886 25.6916 31.6886C28.9641 31.6886 32.0408 32.9512 34.3548 35.2437C36.6688 37.5363 37.9433 40.5846 37.9433 43.8268C37.9432 44.2775 37.5744 44.6432 37.1192 44.6432Z" fill="#333333"/>
</svg>
