<svg width="51" height="50" viewBox="0 0 51 50" fill="none" xmlns="http://www.w3.org/2000/svg">
<path fill-rule="evenodd" clip-rule="evenodd" d="M43.0743 5.88235V0H37.137V5.88235H31.1996V11.7647H37.137V17.6471H43.0743V11.7647H49.0116V5.88235H43.0743ZM43.4216 36.9945C41.3584 35.8945 39.2715 34.641 37.1132 33.7675C32.9423 32.0822 33.2242 37.0643 30.2467 38.6791C28.3111 39.7291 25.5799 37.8263 23.8908 36.7733C20.9399 34.9321 18.3245 32.5091 16.1514 29.7062C15.0382 28.2738 12.5801 25.5799 12.8829 23.5711C13.3639 20.3828 17.1697 20.223 16.0802 16.323C15.4984 14.2347 14.4563 12.1795 13.6756 10.1677C12.6306 7.47068 12.2002 5.74391 9.15136 5.89097C6.94861 5.99685 5.48802 6.92992 4.13431 8.67992C0.470982 13.4064 1.02313 19.7788 3.48415 24.9641C6.96936 32.3023 12.9423 39.2205 19.322 43.6911C23.6622 46.7323 29.3798 49.4936 34.6343 49.9612C38.4817 50.3053 43.8639 48.2444 45.2414 44.1062C45.1464 44.3944 45.0543 44.6732 45.0098 44.8055C45.0425 44.7026 45.1137 44.4944 45.2414 44.1062C45.2978 43.9415 45.3334 43.83 45.369 43.7241C45.3304 43.8389 45.2889 43.9652 45.2444 44.0975C46.4556 40.4505 46.6041 38.6915 43.4216 36.9945ZM45.369 43.7241C45.4165 43.58 45.4581 43.4529 45.4819 43.3852C45.4641 43.4411 45.4224 43.5624 45.369 43.7241Z" fill="#333333"/>
</svg>
