<svg width="52" height="50" viewBox="0 0 52 50" fill="none" xmlns="http://www.w3.org/2000/svg">
<path d="M10.7571 44.1667H9.91597V37.5C10.3811 37.5 10.7571 37.1275 10.7571 36.6667C10.7571 36.2058 10.3811 35.8334 9.91597 35.8334V29.1667C10.3811 29.1667 10.7571 28.7942 10.7571 28.3334C10.7571 27.8725 10.3811 27.5001 9.91597 27.5001V19.1668H10.7571C11.2222 19.1668 11.5981 18.7943 11.5981 18.3335V12.8451L6.55142 17.8451V18.3334C6.55142 18.7942 6.92736 19.1667 7.3925 19.1667H8.23369V27.5C7.76855 27.5 7.3926 27.8724 7.3926 28.3333C7.3926 28.7941 7.76855 29.1666 8.23369 29.1666V35.8333C7.76855 35.8333 7.3926 36.2057 7.3926 36.6666C7.3926 37.1274 7.76855 37.4999 8.23369 37.4999V44.1666H7.3926C6.46487 44.1666 5.71033 44.914 5.71033 45.8333V46.6666C5.71033 47.5857 6.46477 48.3333 7.3926 48.3333H8.23369V49.1666C8.23369 49.6274 8.60963 49.9999 9.07478 49.9999C9.53993 49.9999 9.91587 49.6274 9.91587 49.1666V48.3333H10.757C11.6847 48.3333 12.4392 47.5858 12.4392 46.6666V45.8333C12.4393 44.9141 11.6848 44.1667 10.7571 44.1667ZM7.3926 46.6667V45.8334H10.7571L10.7587 46.6667H7.3926Z" fill="#333333"/>
<path d="M11.5981 8.67847L6.55139 13.6785V15.4884L11.5981 10.4884V8.67847Z" fill="#333333"/>
<path d="M11.5981 2.5C11.5981 1.12168 10.466 0 9.07476 0C7.68355 0 6.55139 1.12168 6.55139 2.5V11.3217L11.5981 6.32168V2.5Z" fill="#333333"/>
<path d="M44.4018 44.1667H43.5607V37.5C44.0259 37.5 44.4018 37.1275 44.4018 36.6667C44.4018 36.2058 44.0259 35.8334 43.5607 35.8334V29.1667C44.0259 29.1667 44.4018 28.7942 44.4018 28.3334C44.4018 27.8725 44.0259 27.5001 43.5607 27.5001V19.1668H44.4018C44.867 19.1668 45.2429 18.7943 45.2429 18.3335V12.8451L40.1962 17.8451V18.3334C40.1962 18.7942 40.5721 19.1667 41.0373 19.1667H41.8784V27.5C41.4132 27.5 41.0373 27.8724 41.0373 28.3333C41.0373 28.7941 41.4132 29.1666 41.8784 29.1666V35.8333C41.4132 35.8333 41.0373 36.2057 41.0373 36.6666C41.0373 37.1274 41.4132 37.4999 41.8784 37.4999V44.1666H41.0374C40.1096 44.1666 39.3551 44.914 39.3551 45.8333V46.6666C39.3551 47.5857 40.1096 48.3333 41.0374 48.3333H41.8785V49.1666C41.8785 49.6274 42.2544 49.9999 42.7196 49.9999C43.1847 49.9999 43.5606 49.6274 43.5606 49.1666V48.3333H44.4017C45.3295 48.3333 46.084 47.5858 46.084 46.6666V45.8333C46.0841 44.9141 45.3297 44.1667 44.4018 44.1667ZM41.0374 46.6667V45.8334H44.4018L44.4035 46.6667H41.0374Z" fill="#333333"/>
<path d="M45.243 8.67847L40.1963 13.6785V15.4884L45.243 10.4884V8.67847Z" fill="#333333"/>
<path d="M45.243 2.5C45.243 1.12168 44.1109 0 42.7197 0C41.3285 0 40.1963 1.12168 40.1963 2.5V11.3217L45.243 6.32168V2.5Z" fill="#333333"/>
<path d="M19.1682 0C16.3849 0 14.1215 2.24248 14.1215 5V10.775L23.103 1.87666C22.1769 0.73418 20.7588 0 19.1682 0Z" fill="#333333"/>
<path d="M14.1215 20.2019L24.2149 10.2019V7.84521L14.1215 17.8452V20.2019Z" fill="#333333"/>
<path d="M14.1215 13.1316V15.4883L24.2149 5.48831V4.99993C24.2149 4.43997 24.1173 3.90247 23.9449 3.39905L14.1215 13.1316Z" fill="#333333"/>
<path d="M20.0094 26.6667C20.0094 26.2067 19.6326 25.8334 19.1684 25.8334C18.7041 25.8334 18.3273 26.2067 18.3273 26.6667V32.4959L20.0053 32.5001L20.0094 26.6667Z" fill="#333333"/>
<path d="M14.1215 45C14.1215 47.7576 16.3849 50.0001 19.1682 50.0001C21.9515 50.0001 24.2149 47.7576 24.2149 45V12.5583L14.1215 22.5583V45ZM16.6448 26.6667C16.6448 25.2884 17.777 24.1667 19.1682 24.1667C20.5594 24.1667 21.6916 25.2884 21.6916 26.6667V32.4959C21.6916 33.4176 20.9354 34.1667 20.0051 34.1667H18.3313C17.401 34.1667 16.6449 33.4176 16.6449 32.4959V26.6667H16.6448ZM16.6448 38.3333C16.6448 37.8725 17.0208 37.5 17.4859 37.5C17.9511 37.5 18.327 37.8725 18.327 38.3333V45C18.327 45.46 18.7038 45.8334 19.1681 45.8334C19.6332 45.8334 20.0092 46.2058 20.0092 46.6666C20.0092 47.1275 19.6332 47.5 19.1681 47.5C17.7769 47.5 16.6447 46.3783 16.6447 45L16.6448 38.3333Z" fill="#333333"/>
<path d="M32.6262 0C29.8429 0 27.5795 2.24248 27.5795 5V10.7742L36.561 1.87676C35.6348 0.73418 34.2167 0 32.6262 0Z" fill="#333333"/>
<path d="M27.5795 20.2019L37.6729 10.2019V7.84521L27.5795 17.8452V20.2019Z" fill="#333333"/>
<path d="M27.5795 13.1309V15.4884L37.6729 5.48843V5.00005C37.6729 4.44009 37.5753 3.90259 37.4029 3.39917L27.5795 13.1309Z" fill="#333333"/>
<path d="M33.4673 26.6667C33.4673 26.2067 33.0905 25.8334 32.6262 25.8334C32.162 25.8334 31.7852 26.2067 31.7852 26.6667V32.4959L33.4632 32.5001L33.4673 26.6667Z" fill="#333333"/>
<path d="M27.5795 45C27.5795 47.7576 29.8429 50.0001 32.6262 50.0001C35.4095 50.0001 37.6729 47.7576 37.6729 45V12.5583L27.5795 22.5583V45ZM30.1028 26.6667C30.1028 25.2884 31.235 24.1667 32.6262 24.1667C34.0174 24.1667 35.1496 25.2884 35.1496 26.6667V32.4959C35.1496 33.4176 34.3934 34.1667 33.4631 34.1667H31.7893C30.8591 34.1667 30.1029 33.4176 30.1029 32.4959V26.6667H30.1028ZM30.1028 38.3333C30.1028 37.8725 30.4788 37.5 30.9439 37.5C31.4091 37.5 31.785 37.8725 31.785 38.3333V45C31.785 45.46 32.1618 45.8334 32.6261 45.8334C33.0912 45.8334 33.4672 46.2058 33.4672 46.6666C33.4672 47.1275 33.0912 47.5 32.6261 47.5C31.2349 47.5 30.1027 46.3783 30.1027 45V38.3333H30.1028Z" fill="#333333"/>
</svg>
