<svg width="52" height="50" viewBox="0 0 52 50" fill="none" xmlns="http://www.w3.org/2000/svg">
<g clip-path="url(#clip0_43_24)">
<path fill-rule="evenodd" clip-rule="evenodd" d="M29.2477 26.5625C29.2477 25.9906 29.0821 25.4625 28.8109 25H23.3761C23.1049 25.4625 22.9393 25.9906 22.9393 26.5625C22.9393 28.2875 24.3524 29.6875 26.0935 29.6875C27.8346 29.6875 29.2477 28.2875 29.2477 26.5625ZM32.4019 26.5625C32.4019 30.0141 29.5773 32.8125 26.0935 32.8125C22.6097 32.8125 19.7851 30.0141 19.7851 26.5625C19.7851 26.0188 19.8703 25.4984 20.0075 25H0.859863V42.1875C0.859863 45.6391 3.68445 48.4375 7.16827 48.4375H45.0187C48.5026 48.4375 51.3272 45.6391 51.3272 42.1875V25H32.1795C32.3167 25.4984 32.4019 26.0188 32.4019 26.5625ZM32.4019 7.8125H19.7851V6.25C19.7851 5.3875 20.4916 4.6875 21.3622 4.6875H30.8248C31.6954 4.6875 32.4019 5.3875 32.4019 6.25V7.8125ZM45.0187 7.8125H35.5561V4.6875C35.5561 2.9625 34.143 1.5625 32.4019 1.5625H19.7851C18.044 1.5625 16.6309 2.9625 16.6309 4.6875V7.8125H7.16827C3.68445 7.8125 0.859863 10.6109 0.859863 14.0625V21.875H51.3272V14.0625C51.3272 10.6109 48.5026 7.8125 45.0187 7.8125Z" fill="#333333"/>
</g>
<defs>
<clipPath id="clip0_43_24">
<rect width="50.4673" height="50" fill="white" transform="translate(0.859863)"/>
</clipPath>
</defs>
</svg>
