<svg width="51" height="50" viewBox="0 0 51 50" fill="none" xmlns="http://www.w3.org/2000/svg">
<g clip-path="url(#clip0_44_47)">
<path d="M47.7913 4.2959C46.7973 1.59023 44.2299 0 41.6098 0C39.1762 0 36.774 1.35723 35.6383 3.77031C34.1042 7.02969 35.5327 10.9183 38.8228 12.4382C39.7066 12.8466 40.641 13.0536 41.6 13.0536C46.1496 13.0536 49.3606 8.5668 47.7913 4.2959Z" fill="#333333"/>
<path d="M42.0515 45.0087C41.2274 44.6284 40.2483 44.9812 39.8641 45.7974C39.4816 46.6104 38.5042 46.9643 37.6827 46.5889L27.0291 41.551C27.0245 41.5488 27.02 41.5474 27.0155 41.5453L30.4948 34.1528C31.0212 33.0322 30.8664 31.7351 30.0909 30.7669L25.1493 24.5975L28.1594 22.2122C28.4585 22.4546 37.7601 26.7174 37.6502 26.6666C39.3102 27.4335 41.2671 26.6989 42.0246 25.0892C42.7904 23.462 42.0748 21.5139 40.4324 20.7553L35.7188 18.5776L32.9962 11.1665C32.3835 9.49874 30.4933 8.58399 28.7603 9.20899C28.2331 9.41183 23.6619 13.0583 20.8514 15.2951C18.4442 14.183 15.5895 12.8642 14.0848 12.169L14.7803 10.691C15.1644 9.87481 14.808 8.9046 13.9843 8.52403C13.1605 8.14366 12.1811 8.49659 11.797 9.3128L11.1015 10.7906L9.60977 10.1016C8.78603 9.7211 7.80665 10.0741 7.42252 10.8902C7.0384 11.7066 7.39473 12.6768 8.21856 13.0573L9.71031 13.7464L9.0148 15.2243C8.50471 16.308 9.30953 17.5444 10.5054 17.5444C11.1252 17.5444 11.7189 17.1958 11.9981 16.6025L12.6936 15.1247L17.9701 17.5624C17.8604 17.6474 17.143 18.1576 16.3299 18.7959C15.627 19.3485 15.1859 20.1342 15.088 21.0081C14.9924 21.8604 15.2365 22.6951 15.7748 23.3586L23.6641 33.2314L21.0487 38.7881L5.13809 31.4376C4.31425 31.0571 3.33507 31.4101 2.95084 32.2264C2.56672 33.0426 2.92315 34.0128 3.74689 34.3934L36.2724 49.5356C36.2768 49.5377 36.2812 49.5397 36.2857 49.5419C38.7533 50.682 41.6969 49.6202 42.8475 47.1758C43.2316 46.3596 42.8753 45.3894 42.0515 45.0087Z" fill="#333333"/>
</g>
<defs>
<clipPath id="clip0_44_47">
<rect width="50.4673" height="50" fill="white" transform="translate(0.261719)"/>
</clipPath>
</defs>
</svg>
